<svg width="1024" height="1024" viewBox="0 0 1024 1024" fill="none" xmlns="http://www.w3.org/2000/svg">
<rect width="1024" height="1024" fill="black"/>
<path d="M595.493 502.144L595.262 501.983C595.156 493.58 605.308 482.008 613.211 479.864C614.151 479.609 617.708 478.59 618.121 478.046L617.814 477.131L618.013 476.799C623.73 475.319 628.703 475.832 634.187 477.882C637.112 478.975 638.212 479.574 641.001 481.059C647.422 484.457 652.181 490.31 654.205 497.298C658.063 510.476 652.326 527.649 637.348 534.356C635.083 535.371 621.041 537.788 619.59 536.625L620.607 536.182L620.483 535.966L619.892 535.977L619.248 536.651C618.465 536.881 616.986 536.314 616.044 536.068L616.012 535.877L617.051 535.764L617.084 535.598C612.485 534.406 610.637 533.5 607.191 530.182C605.765 528.807 605.401 529.008 604.189 526.994C597.286 520.737 594.02 511.402 595.493 502.144Z" fill="white"/>
<path d="M595.493 502.144L595.262 501.983C595.156 493.58 605.308 482.008 613.211 479.864C614.151 479.609 617.708 478.59 618.121 478.046L617.814 477.131L618.013 476.799C623.73 475.319 628.703 475.832 634.187 477.882C637.112 478.975 638.212 479.574 641.001 481.059C647.422 484.457 652.181 490.31 654.205 497.298C658.063 510.476 652.326 527.649 637.348 534.356C635.083 535.371 621.041 537.788 619.59 536.625L620.607 536.182L620.483 535.966L619.892 535.977L619.248 536.651C618.465 536.881 616.986 536.314 616.044 536.068L616.012 535.877L617.051 535.764L617.084 535.598C612.485 534.406 610.637 533.5 607.191 530.182C605.765 528.807 605.401 529.008 604.189 526.994C613.604 535.529 627.676 536.517 638.339 529.392C649.002 522.268 653.529 508.854 649.324 496.838C645.119 484.823 633.259 477.279 620.541 478.533C607.824 479.787 597.502 489.515 595.493 502.144Z" fill="#363435"/>
<path d="M549.314 317.074C539.569 310.224 535.479 297.784 539.214 286.353C538.81 282.564 544.547 276.016 546.996 273.301C546.405 273.457 546.033 274.565 545.002 274.873C546.644 270.764 555.039 266.374 559.233 265.393C561.261 264.919 569.571 264.193 571.013 265.1L570.97 265.537L569.772 266.081L569.793 266.724C571.629 267.432 572.317 267.78 573.164 265.919C575.58 265.509 580.682 268.374 581.915 268.206C581.98 268.532 582.049 268.571 582.22 268.874C588.128 271.133 593.975 279.554 596.1 285.296C596.764 287.089 596.495 289.346 596.923 290.874C598.882 297.87 596.284 303.292 593.369 309.603C592.766 312.151 590.518 312.775 589.19 314.472C582.235 323.362 569.319 326.879 558.743 323.964C557.834 323.713 556.01 323.251 555.423 322.611C557.136 323.113 562.039 324.626 563.571 324.088L563.561 323.785C561.355 323.194 561.223 324.729 558.717 322.639L558.782 322.355L559.335 322.285C558.187 321.745 556.779 320.763 555.602 321.299L556.044 322.084L555.755 322.139C553.546 320.145 550.656 318.796 549.314 317.074Z" fill="white"/>
<path d="M539.559 286.006C539.137 282.236 544.805 275.757 547.225 273.07C546.639 273.222 546.275 274.322 545.251 274.622C546.862 270.546 555.185 266.227 559.35 265.275C561.365 264.815 569.625 264.139 571.064 265.049L571.023 265.484L569.836 266.018L569.859 266.657C571.689 267.372 572.375 267.721 573.208 265.875C575.608 265.481 580.698 268.359 581.922 268.198C581.989 268.523 582.058 268.562 582.23 268.865C588.117 271.143 593.979 279.55 596.125 285.271C596.794 287.058 596.54 289.301 596.973 290.823C598.961 297.791 596.408 303.168 593.543 309.427C592.959 311.957 590.726 312.566 589.416 314.246C582.548 323.048 569.723 326.473 559.189 323.515C558.285 323.261 556.468 322.791 555.88 322.151C557.587 322.66 562.471 324.192 563.992 323.666L563.98 323.364C561.783 322.764 561.661 324.29 559.157 322.198L559.219 321.916L559.769 321.849C558.624 321.305 557.219 320.322 556.051 320.848L556.495 321.631L556.208 321.684C554 319.688 551.119 318.332 549.775 316.611C559.4 323.404 572.307 323.237 581.771 316.198C591.235 309.159 595.111 296.841 591.381 285.664C587.65 274.487 577.157 266.982 565.37 267.06C553.583 267.137 543.17 274.78 539.559 286.006Z" fill="#363435"/>
<path d="M656.761 477.178C658.302 477.112 661.84 477.296 662.739 476.422C661.857 475.982 659.148 475.741 657.359 475.079C650.752 472.636 644.317 467.855 640.98 461.51C640.041 459.722 638.568 457.582 638.912 455.848C637.401 451.402 637.005 446.699 637.761 442.163C636.261 438.284 642.576 428.815 645.521 426.504C646.532 425.71 647.509 424.697 648.454 423.819L646.719 425.037C648.22 423.182 650.847 421.219 653.104 420.368L653.294 420.675L652.723 421.663C658.699 419.396 663.265 418.474 669.81 419.937C671.267 420.262 673.922 421.259 675.031 421.432L675.121 420.938C674.4 419.921 672.794 419.801 671.809 418.781C673.238 418.719 678.44 420.428 679.303 421.617C680.744 423.605 681.451 422.722 682.982 424.243C682.876 423.551 682.848 423.886 683.067 423.237C685.727 422.936 692.486 431.727 693.881 434.14C697.104 439.717 698.712 448.923 697.626 455.147C697.055 458.421 696.241 460.202 694.389 462.801C691.373 469.02 688.12 471.463 682.45 475.242C679.54 477.181 677.951 477.171 674.914 478.017C667.617 480.048 664.127 479.073 656.761 477.178Z" fill="white"/>
<path d="M656.761 477.178C658.302 477.112 661.84 477.296 662.739 476.422C661.857 475.982 659.148 475.741 657.359 475.079C650.752 472.636 644.317 467.855 640.98 461.51C640.041 459.722 638.568 457.582 638.912 455.848C643.502 469.354 657.292 477.775 671.075 475.486C684.857 473.198 694.314 460.918 693.131 446.845C691.948 432.773 680.495 421.317 666.42 420.127C652.346 418.937 640.057 428.385 637.761 442.163C636.261 438.284 642.576 428.815 645.521 426.504C646.532 425.71 647.509 424.697 648.454 423.819L646.719 425.037C648.22 423.182 650.847 421.219 653.104 420.368L653.294 420.675L652.723 421.663C658.699 419.396 663.265 418.474 669.81 419.937C671.267 420.262 673.922 421.259 675.031 421.432L675.121 420.938C674.4 419.921 672.794 419.801 671.809 418.781C673.238 418.719 678.44 420.428 679.303 421.617C680.744 423.605 681.451 422.722 682.982 424.243C682.876 423.551 682.848 423.886 683.067 423.237C685.727 422.936 692.486 431.727 693.881 434.14C697.104 439.717 698.712 448.923 697.626 455.147C697.055 458.421 696.241 460.202 694.389 462.801C691.373 469.02 688.12 471.463 682.45 475.242C679.54 477.181 677.951 477.171 674.914 478.017C667.617 480.048 664.127 479.073 656.761 477.178Z" fill="#363435"/>
<path d="M385.537 374.727L385.407 374.537C386.348 369.989 390.482 365.302 393.865 362.303C397.574 359.015 409.809 353.919 414.517 354.262C432.053 355.539 445.869 369.875 443.303 387.938C442.578 393.048 440.926 398.641 437.766 402.743C432.795 409.096 426.474 413.331 418.477 414.875C416.728 415.193 408.275 415.059 407.046 414.092L407.067 414.025L408.471 413.633C406.899 413.002 403.649 412.492 402.673 411.948C402.437 411.044 402.624 411.31 402.081 410.644C399.467 410.017 398.429 409.825 396.351 408.058L397.539 408.727C395.495 407 394.127 405.873 392.433 403.818C384.413 394.787 382.06 386.404 385.537 374.727Z" fill="white"/>
<path d="M385.537 374.727L385.407 374.537C386.348 369.989 390.482 365.302 393.865 362.303C397.574 359.015 409.809 353.919 414.517 354.262C432.053 355.539 445.869 369.875 443.303 387.938C442.578 393.048 440.926 398.641 437.766 402.743C432.795 409.096 426.474 413.331 418.477 414.875C416.728 415.193 408.275 415.059 407.046 414.092L407.067 414.025L408.471 413.633C406.899 413.002 403.649 412.492 402.673 411.948C402.437 411.044 402.624 411.31 402.081 410.644C399.467 410.017 398.429 409.825 396.351 408.058L397.539 408.727C395.495 407 394.127 405.873 392.433 403.818C399.089 409.314 405.772 412.668 414.644 411.868C421.975 411.151 428.686 407.538 433.292 401.83C437.888 396.136 439.987 388.811 439.121 381.496C438.265 374.032 434.456 367.191 428.546 362.501C414.521 351.372 393.86 356.504 386.632 372.488C386.461 372.868 385.711 374.484 385.537 374.727Z" fill="#363435"/>
<path d="M389.562 432.34C390.128 429.709 392.911 428.746 394.416 426.787C393.389 427.673 392.061 428.906 390.82 429.338L390.694 429.17C395.69 424.122 403.702 418.836 411.103 419.536L410.895 419.925C409.7 420.414 406.642 420.634 405.171 420.999C402.567 421.645 396.486 424.51 395.075 426.707C398.614 423.317 404.751 422.147 409.301 421.027C411.328 420.528 413.706 418.512 415.451 420.51C415.54 420.498 415.628 420.486 415.716 420.473L416.157 420.421C421.089 419.81 425.9 422.298 429.801 425.077C436.768 429.935 441.426 437.443 442.698 445.866C444.604 457.928 437.27 470.578 426.665 476.238C425.479 476.871 424.254 477.992 422.791 478.224C420.317 478.616 417.798 479.519 415.318 479.961C413.194 479.727 409.114 479.152 406.678 478.798C405.711 478.657 402.016 477.351 401.033 476.844C400.715 476.359 400.442 475.941 400.214 475.592C399.023 475.075 397.564 473.961 396.559 473.787L396.534 474.168L396.285 474.173C389.767 467.979 385.356 464.009 383.459 454.748L383.754 454.456C382.417 446.62 384.535 438.558 389.562 432.34Z" fill="white"/>
<path d="M389.562 432.34C390.128 429.709 392.911 428.746 394.416 426.787C393.389 427.673 392.061 428.906 390.82 429.338L390.694 429.17C395.69 424.122 403.702 418.836 411.103 419.536L410.895 419.925C409.7 420.414 406.642 420.634 405.171 420.999C402.567 421.645 396.486 424.51 395.075 426.707C398.614 423.317 404.751 422.147 409.301 421.027C411.328 420.528 413.706 418.512 415.451 420.51C415.54 420.498 415.628 420.486 415.716 420.473L416.157 420.421C421.089 419.81 425.9 422.298 429.801 425.077C436.768 429.935 441.426 437.443 442.698 445.866C444.604 457.928 437.27 470.578 426.665 476.238C425.479 476.871 424.254 477.992 422.791 478.224C420.317 478.616 417.798 479.519 415.318 479.961C413.194 479.727 409.114 479.152 406.678 478.798C405.711 478.657 402.016 477.351 401.033 476.844C400.715 476.359 400.442 475.941 400.214 475.592C399.023 475.075 397.564 473.961 396.559 473.787L396.534 474.168L396.285 474.173C389.767 467.979 385.356 464.009 383.459 454.748L383.754 454.456C385.935 467.249 396.758 476.707 409.742 477.167C422.725 477.627 434.352 468.965 437.66 456.367C440.968 443.769 435.061 430.649 423.477 424.862C411.892 419.075 397.768 422.19 389.562 432.34Z" fill="#363435"/>
<path d="M474.25 284.012L474.124 283.722C476.314 278.888 478.782 276.464 482.378 272.636L480.632 273.968C481.832 271.26 488.367 268.002 490.993 266.981C492.251 266.492 492.813 266.315 494.062 266.891L493.918 267.155C492.324 266.859 488.575 268.538 487.59 269.63L487.651 269.484L488.029 269.696L487.703 269.405C488.539 269.863 488.298 269.514 489.473 268.807C491.206 267.765 494.33 267.388 496.39 267.036L495.661 266.572C496.267 265.837 495.902 265.989 496.676 265.869C499.485 267.999 499.07 266.483 501.689 266.221C500.607 265.681 498.832 266.375 497.603 265.486L497.67 265.232C499.053 264.499 503.68 265.17 505.417 265.49C523.451 268.817 533.942 283.843 530.576 301.952C527.857 316.577 511.563 328.087 496.901 324.91C494.393 324.366 488.259 322.956 486.943 320.576C486.886 320.48 486.828 320.383 486.77 320.286C485.338 319.643 484.243 318.926 483.017 317.956L482.995 317.421C472.642 309.694 469.014 295.831 474.25 284.012Z" fill="white"/>
<path d="M474.25 284.012L474.124 283.722C476.314 278.888 478.782 276.464 482.378 272.636L480.632 273.968C481.832 271.26 488.367 268.002 490.993 266.981C492.251 266.492 492.813 266.315 494.062 266.891L493.918 267.155C492.324 266.859 488.575 268.538 487.59 269.63L487.651 269.484L488.029 269.696L487.703 269.405C488.539 269.863 488.298 269.514 489.473 268.807C491.206 267.765 494.33 267.388 496.39 267.036L495.661 266.572C496.267 265.837 495.902 265.989 496.676 265.869C499.485 267.999 499.07 266.483 501.689 266.221C500.607 265.681 498.832 266.375 497.603 265.486L497.67 265.232C499.053 264.499 503.68 265.17 505.417 265.49C523.451 268.817 533.942 283.843 530.576 301.952C527.857 316.577 511.563 328.087 496.901 324.91C494.393 324.366 488.259 322.956 486.943 320.576C486.886 320.48 486.828 320.383 486.77 320.286C485.338 319.643 484.243 318.926 483.017 317.956L482.995 317.421C492.426 324.461 505.281 324.766 515.047 318.184C524.813 311.601 529.357 299.568 526.377 288.181C523.396 276.794 513.543 268.54 501.808 267.602C490.073 266.663 479.021 273.245 474.25 284.012Z" fill="#363435"/>
<path d="M425.219 486.793C430.041 480.612 439.904 477.462 447.54 478.3C448.622 478.419 450.844 478.536 451.763 478.939C452.772 479.381 454.135 479.156 454.601 478.142C453.91 477.482 448.385 476.717 447.081 476.692C445.841 476.668 445.288 477.031 443.505 476.842L443.917 476.528C450.783 476.064 453.66 476.567 459.895 479.68C461.672 480.567 466.3 484.579 467.557 484.566C467.778 485.301 470.339 487.956 470.999 488.75C475.365 494.087 477.626 501.754 477.017 508.646C476.721 512.002 474.953 514.452 474.895 517.838C474.525 518.181 473.603 518.992 473.455 519.384C472.114 522.954 467.57 528.112 464.626 530.416C460.762 533.439 455.974 537.467 450.791 536.434C450.394 536.354 450.505 536.365 450.108 536.539L450.654 537.005L450.229 537.317C447.854 537.28 445.646 537.9 443.214 537.671C435.838 536.976 430.186 532.745 425.632 527.189C422.028 523.305 419.504 520.024 418.031 514.822C415.056 504.319 417.789 494.693 425.219 486.793Z" fill="white"/>
<path d="M425.219 486.793C430.041 480.612 439.904 477.462 447.54 478.3C448.622 478.419 450.844 478.536 451.763 478.939C452.772 479.381 454.135 479.156 454.601 478.142C453.91 477.482 448.385 476.717 447.081 476.692C445.841 476.668 445.288 477.031 443.505 476.842L443.917 476.528C450.783 476.064 453.66 476.567 459.895 479.68C461.672 480.567 466.3 484.579 467.557 484.566C467.778 485.301 470.339 487.956 470.999 488.75C475.365 494.087 477.626 501.754 477.017 508.646C476.721 512.002 474.953 514.452 474.895 517.838C474.525 518.181 473.603 518.992 473.455 519.384C472.114 522.954 467.57 528.112 464.626 530.416C460.762 533.439 455.974 537.467 450.791 536.434C450.394 536.354 450.505 536.365 450.108 536.539L450.654 537.005L450.229 537.317C447.854 537.28 445.646 537.9 443.214 537.671C435.838 536.976 430.186 532.745 425.632 527.189C432.188 532.606 438.624 535.149 447.33 534.294C454.674 533.531 461.439 529.875 466.127 524.134C476.072 512.063 474.193 494.431 462.205 484.763C456.559 480.167 449.266 478.078 441.999 478.976C434.979 479.797 430.52 482.351 425.219 486.793Z" fill="#363435"/>
<path d="M607.979 351.199C601.133 346.298 596.387 340.437 594.929 331.904C593.734 324.732 595.409 317.378 599.593 311.431C600.176 310.608 600.945 309.635 601.596 308.866C602.379 304.277 618.095 297.796 622.404 298.691L622.235 298.338C621.48 298.173 621.052 298.075 620.303 297.835L620.372 297.521C623.096 296.466 631.276 298.173 634.239 299.15C641.264 301.468 647.048 306.466 650.571 312.916C655.545 321.491 654.957 332.288 651.544 341.34C650.169 344.986 642.64 351.901 639.243 354.105C637.183 355.442 635.702 355.695 633.431 356.074C632.042 356.306 630.342 358.113 628.779 357.726C626.722 357.606 624.259 358.548 622.326 357.13C622.234 356.952 621.605 355.807 621.448 355.786C618.333 355.368 615.113 354.896 612.142 353.842C611.514 353.619 608.191 351.685 607.979 351.199Z" fill="white"/>
<path d="M601.374 309.09C602.182 304.475 618.005 297.887 622.33 298.766L622.161 298.412C621.403 298.25 620.974 298.153 620.223 297.916L620.294 297.6C623.035 296.527 631.247 298.203 634.218 299.17C641.266 301.466 647.054 306.46 650.563 312.925C655.519 321.517 654.877 332.369 651.404 341.481C650.005 345.151 642.407 352.135 638.983 354.366C636.907 355.719 635.418 355.98 633.134 356.372C631.737 356.612 630.021 358.435 628.452 358.054C626.386 357.943 623.907 358.902 621.971 357.486C621.88 357.308 621.253 356.16 621.095 356.14C617.968 355.735 614.735 355.276 611.755 354.231C611.125 354.01 607.796 352.082 607.584 351.595C610.007 352.548 611.978 353.57 614.54 354.359C627.891 358.475 642.758 351.077 647.972 338.094C650.74 331.127 650.62 323.37 647.638 316.548C644.664 309.611 639.022 304.183 631.974 301.48C630.856 301.047 629.221 300.567 628.05 300.334C626.114 300.031 624.673 299.884 622.73 299.745L622.479 299.725C613.115 300.116 608.038 302.769 601.374 309.09Z" fill="#363435"/>
<path d="M559.814 560.182L559.736 560.623C559.535 561.873 558.619 562.391 558.563 562.702C559.071 563.458 557.107 565.273 557.023 565.266L556.972 565.182L556.988 565.19L556.95 564.84C557.042 564.498 557.051 564.411 557.01 564.046L556.986 563.815C558.015 562.617 558.74 561.669 559.691 560.352L559.814 560.182Z" fill="#363435"/>
<path d="M422.062 309.058C422.613 307.703 426.212 304.41 427.447 303.203L426.519 303.87C429.267 300.931 433.515 299.018 437.346 297.967C437.125 299.491 429.129 300.962 428.085 302.896C431.454 301.426 434.42 300.061 438.027 298.835C440.92 297.852 446.129 298.138 449.035 299.279C449.605 299.503 449.222 299.447 449.925 299.31C450.059 298.966 450.225 298.949 450.608 298.647C450.35 298.042 446.06 297.669 445.165 296.709L445.375 296.564C448.649 296.328 454.936 298.439 457.973 299.815C459.499 301.105 463.321 302.691 464.59 303.871C469.906 308.815 475.195 317.908 475.6 324.872C476.067 332.904 474.273 339.537 469.579 345.301C463.75 352.46 457.364 356.706 448.221 357.514C445.24 357.58 441.099 357.813 438.237 357.173C437.25 356.953 432.22 354.536 431.535 353.971C432.077 353.567 431.836 353.784 432.267 353.33C429.944 352.487 422.981 348.359 422.492 345.954C413.13 335.483 412.946 319.715 422.062 309.058Z" fill="white"/>
<path d="M422.062 309.058C422.613 307.703 426.212 304.41 427.447 303.203L426.519 303.87C429.267 300.931 433.515 299.018 437.346 297.967C437.125 299.491 429.129 300.962 428.085 302.896C431.454 301.426 434.42 300.061 438.027 298.835C440.92 297.852 446.129 298.138 449.035 299.279C449.605 299.503 449.222 299.447 449.925 299.31C450.059 298.966 450.225 298.949 450.608 298.647C450.35 298.042 446.06 297.669 445.165 296.709L445.375 296.564C448.649 296.328 454.936 298.439 457.973 299.815C459.499 301.105 463.321 302.691 464.59 303.871C469.906 308.815 475.195 317.908 475.6 324.872C476.067 332.904 474.273 339.537 469.579 345.301C463.75 352.46 457.364 356.706 448.221 357.514C445.24 357.58 441.099 357.813 438.237 357.173C437.25 356.953 432.22 354.536 431.535 353.971C432.077 353.567 431.836 353.784 432.267 353.33C429.944 352.487 422.981 348.359 422.492 345.954C430.281 354.663 442.646 357.64 453.527 353.425C464.409 349.209 471.525 338.684 471.389 327.01C471.253 315.335 463.892 304.957 452.915 300.962C441.938 296.967 429.646 300.193 422.062 309.058Z" fill="#363435"/>
<path d="M650.916 405.671C642.481 400.423 637.592 390.988 638.151 381.038C638.709 371.089 644.628 362.195 653.603 357.818C656.648 354.891 664.958 353.845 669.042 354.451C671.044 354.748 673.374 355.468 675.479 355.837L675.403 355.601C674.683 355.141 672.855 354.348 672.529 353.901L672.746 353.43L673.323 353.417C674.308 354.126 677.335 355.342 678.541 355.694C683.181 357.044 688.716 361.752 691.434 365.701C695.981 372.519 697.573 378.79 696.447 386.9C694.532 400.706 680.907 412.975 666.827 412.026C662.74 411.751 652.974 409.716 650.916 405.671Z" fill="white"/>
<path d="M653.25 357.086C656.268 354.187 664.568 353.219 668.658 353.863C670.663 354.179 673 354.92 675.109 355.308L675.031 355.072C674.306 354.605 672.471 353.795 672.14 353.345L672.353 352.876L672.93 352.869C673.921 353.588 676.96 354.832 678.169 355.194C682.822 356.588 688.401 361.347 691.156 365.321C695.767 372.181 697.417 378.466 696.367 386.566C694.58 400.353 681.07 412.494 666.98 411.414C662.891 411.101 653.105 408.974 651.01 404.911C662.213 411.945 676.736 410.078 685.593 400.465C694.45 390.851 695.136 376.211 687.227 365.602C679.317 354.993 665.049 351.417 653.25 357.086Z" fill="#363435"/>
<path d="M484.977 560.962C472.567 550.794 470.772 532.481 480.972 520.097C491.172 507.713 509.489 505.964 521.847 516.195C534.162 526.389 535.902 544.627 525.739 556.967C515.576 569.307 497.342 571.095 484.977 560.962Z" fill="white"/>
<path d="M488.925 556.453C478.728 548.098 476.841 533.361 484.7 523.454C492.56 513.548 507.219 512.185 517.526 520.402C527.934 528.701 529.947 543.607 522.01 553.611C514.073 563.615 499.224 564.891 488.925 556.453Z" fill="black"/>
<path d="M548.307 560.49C536.045 550.518 534.241 532.471 544.286 520.269C554.331 508.066 572.388 506.369 584.53 516.487C596.571 526.52 598.251 544.392 588.29 556.493C578.329 568.593 560.466 570.379 548.307 560.49Z" fill="white"/>
<path d="M552.44 557.29C541.661 549.571 538.83 534.829 546.121 524.388C553.412 513.946 568.057 511.772 578.804 519.535C589.52 527.275 592.309 541.968 585.04 552.377C577.771 562.787 563.187 564.985 552.44 557.29Z" fill="black"/>
<path d="M425.222 589.204C463.145 559.31 525.019 580.851 514.657 642.913C512.485 656.136 505.804 667.795 496.122 675.264C480.531 687.315 455.793 688.547 438.382 681.135C437.46 680.42 435.538 679.375 434.503 678.819C418.2 669.965 409.314 651.995 409.466 631.385C409.605 612.633 414.153 602.139 425.222 589.204ZM469.219 648.534C486.818 642.661 483.291 608.729 456.476 613.294C452.134 614.15 450.168 614.988 447.526 619.291C442.862 626.889 443.752 640.324 450.752 645.645C456.471 649.993 462.833 649.537 469.219 648.534Z" fill="#FEFEFE"/>
<path d="M455.809 611.268C462.075 610.443 470.736 610.147 476.122 614.344C484.884 621.173 483.125 637.569 477.919 646.416C474.686 648.587 473.992 649.039 470.324 649.926C461.383 651.368 454.394 651.471 446.686 645.979C442.679 638.352 441.443 626.253 445.546 618.252C448.077 613.321 451.328 612.434 455.809 611.268ZM469.219 648.534C486.818 642.661 483.291 608.729 456.476 613.294C452.134 614.15 450.168 614.988 447.526 619.291C442.862 626.889 443.752 640.324 450.752 645.645C456.471 649.993 462.833 649.537 469.219 648.534Z" fill="black"/>
<path d="M599.961 613.583C602.647 600.793 604.495 589.443 615.251 582.199C631.139 571.502 658.519 573.673 668.553 593.535C674.89 606.081 673.642 624.894 673.628 639.171L673.612 684.112C669.495 684.729 642.041 684.428 637.025 684.254C637.092 682.75 637.092 681.434 637.074 679.928L636.56 647.989C636.455 640.544 636.819 632.594 635.687 625.273C635.27 622.592 634.684 619.8 632.905 617.878C628.881 613.527 622.096 613.405 616.934 613.711C613.165 613.935 607.401 614.852 604.796 618.383C601.596 622.72 602.36 675.153 603.184 684.481C596.51 684.051 571.05 685.03 566.977 684.017L566.974 578.158C577.969 577.495 588.616 578.016 599.477 577.708C599.486 587.06 599.134 605.065 599.961 613.583Z" fill="#FEFEFE"/>
<path d="M601.658 683.673L601.563 646.552C601.549 639.115 601.102 631.182 602.038 623.816C602.378 621.132 602.987 617.868 604.673 615.882C608.635 611.22 616.518 611.603 621.756 611.695C626.401 611.776 632.13 612.205 635.524 616.42C641.855 624.284 638.956 670.694 639.246 683.557C643.974 683.651 671.016 683.379 673.612 684.112C669.495 684.729 642.041 684.428 637.025 684.254C637.092 682.75 637.092 681.434 637.074 679.928L636.56 647.989C636.455 640.544 636.819 632.594 635.687 625.273C635.27 622.592 634.684 619.801 632.905 617.878C628.881 613.527 622.096 613.405 616.934 613.712C613.164 613.935 607.401 614.852 604.796 618.383C601.596 622.72 602.36 675.153 603.184 684.481C596.51 684.051 571.05 685.03 566.977 684.017C572.909 683.109 594.799 683.658 601.658 683.673Z" fill="black"/>
<path d="M369.743 543.311L377.677 543.282C387.266 543.447 396.857 543.471 406.447 543.354C405.262 572.416 410.188 632.162 401.808 655.899C399.681 661.927 395.278 665.722 392.753 671.067C380.812 681.155 371.029 684.794 356.139 685.475C339.053 686.257 320.043 684.953 306.663 671.071C293.362 657.271 292.946 636.874 292.139 617.814L329.152 617.752C329.038 640.15 328.497 648.179 351.401 647.135C362.783 646.616 368.487 646.548 369.359 631.247C369.921 621.392 369.651 611.097 369.646 601.228C369.568 581.922 369.6 562.616 369.743 543.311Z" fill="#FEFEFE"/>
<path d="M519.793 577.83C531.107 577.686 545.946 577.379 557.195 577.856C555.723 591.145 558.24 680.403 555.947 683.824L554.97 684.078L554.47 684.053C545.24 685.324 530.176 683.906 520.027 684.675C520.196 672.629 519.696 660.091 519.388 648.011C518.795 624.851 520.705 600.874 519.793 577.83Z" fill="#FEFEFE"/>
<path d="M519.793 577.83C531.107 577.686 545.946 577.379 557.195 577.856C555.723 591.145 558.24 680.403 555.947 683.824L554.97 684.078C556.1 682.052 555.5 587.892 555.47 578.884C544.107 578.728 532.742 578.742 521.377 578.926L521.33 683.54C529.949 684.102 547.129 682.834 554.47 684.053C545.24 685.324 530.176 683.906 520.027 684.675C520.196 672.629 519.696 660.091 519.388 648.011C518.795 624.851 520.705 600.874 519.793 577.83Z" fill="black"/>
<path d="M377.677 543.282L375.144 542.787L374.795 542.024C377.755 540.425 402.703 541.006 407.208 541.327L407.346 587.959C407.37 598.071 407.126 610.296 408.171 620.149C409.995 608.14 413.905 597.392 422.633 589.466C423.133 589.011 423.522 588.887 424.164 588.833L425.222 589.204C414.153 602.139 409.605 612.633 409.466 631.385C409.314 651.995 418.2 669.965 434.503 678.819C435.538 679.375 437.46 680.42 438.382 681.135L437.951 681.811C435.471 681.974 428.913 677.27 426.771 675.644C415.931 667.403 410.035 652.189 407.682 637.751C405.369 645.261 401.137 669.909 392.753 671.067C395.278 665.722 399.681 661.926 401.808 655.899C410.188 632.162 405.262 572.416 406.447 543.354C396.857 543.471 387.266 543.447 377.677 543.282Z" fill="black"/>
</svg>
